# xmcd
#
# Track frame offsets: 
#        150
#        20788
#        41883
#        63723
#        84180
#        127210
#        146588
#        166108
#        188463
#        211160
#
# Disc length: 3099 seconds
#
# Revision: 0
# Processed by: cddbd v1.5.2PL0 Copyright (c) Steve Scherf et al.
# Submitted via: ExactAudioCopy v1.0b3
#
DISCID=8b0c190a
DTITLE=Various Artist - Manh Tinh Thuong
DYEAR=1991
DGENRE=
TTITLE0=Huong Lan, Tuan Vu - Doi mat nguoi xua
TTITLE1=Huong Lan - Cho toi duoc mot lan
TTITLE2=Tuan Vu - Tam anh ngay xua
TTITLE3=Huong Lan - Bao gio em quen
TTITLE4=Tuan Vu - Co hang nuoc
TTITLE5=Nhat Linh - Doan buon cho toi
TTITLE6=Thanh Tuyen - Manh tinh thuong
TTITLE7=Nhat Linh - Dem lang thang
TTITLE8=Thanh Tuyen - Bac trang lua hong
TTITLE9=Nhat Linh - Lan dau cung la lan cuoi
EXTD=
EXTT0=
EXTT1=
EXTT2=
EXTT3=
EXTT4=
EXTT5=
EXTT6=
EXTT7=
EXTT8=
EXTT9=
PLAYORDER=
